<svg xmlns="http://www.w3.org/2000/svg" width="104" height="117" viewBox="0 0 104 117" version="1.1">
	<path d="M 41 1.119 C 37.975 1.606, 32.350 3.549, 28.500 5.437 C 10.474 14.276, 0.985 29.782, 1.012 50.355 C 1.032 65.923, 5.177 76.368, 15.379 86.556 C 25.688 96.852, 39.230 101.762, 54.595 100.776 L 62.180 100.289 68.340 108.602 L 74.500 116.916 89.302 116.958 L 104.104 117 94.241 105.250 C 88.816 98.787, 84.026 92.913, 83.596 92.195 C 83.081 91.336, 84.569 89.034, 87.949 85.461 C 90.974 82.262, 94.607 76.841, 96.792 72.266 L 100.500 64.500 100.500 50.500 L 100.500 36.500 96.792 28.734 C 91.670 18.009, 84.801 10.974, 74.563 5.972 C 63.346 0.491, 53.629 -0.914, 41 1.119 M 42.747 23.203 C 40.683 23.752, 36.745 26.221, 33.998 28.692 C 29.770 32.493, 28.673 34.265, 26.867 40.211 C 20.705 60.498, 32.191 79, 50.948 79 C 65.473 79, 75.642 68.739, 76.772 52.941 C 78.283 31.820, 62.440 17.973, 42.747 23.203" stroke="none" fill="black" fill-rule="evenodd"/>
</svg>